/* XPM */
static char *_f8e083ef9b940439a550c0a8908fe71HwKghGOSdPvqxeON[] = {
/* columns rows colors chars-per-pixel */
"40 40 167 2 ",
"   c None",
".  c #231C19",
"X  c #2A1E1B",
"o  c #2B211C",
"O  c #34231E",
"+  c #38231F",
"@  c #2E2623",
"#  c #332420",
"$  c #3A2420",
"%  c #362A21",
"&  c #3C2D22",
"*  c #322B29",
"=  c #3E2D29",
"-  c #3E3225",
";  c #3D3128",
":  c #3A3532",
">  c #412622",
",  c #442B24",
"<  c #4C2B25",
"1  c #422F2B",
"2  c #522E26",
"3  c #562D28",
"4  c #443224",
"5  c #4C3126",
"6  c #4B3827",
"7  c #42332B",
"8  c #4E322E",
"9  c #4C3A2E",
"0  c #52352B",
"q  c #5C322A",
"w  c #513C29",
"e  c #5D3C2B",
"r  c #4C3431",
"t  c #473D33",
"y  c #583830",
"u  c #553F3B",
"i  c #66342C",
"p  c #623B2B",
"a  c #6B3D2D",
"s  c #713B2E",
"d  c #733E31",
"f  c #783F30",
"g  c #5D452D",
"h  c #4A4037",
"j  c #594633",
"k  c #5D4C39",
"l  c #61472E",
"z  c #6E412F",
"x  c #63492F",
"c  c #76402F",
"v  c #78422F",
"b  c #664A30",
"n  c #6C4836",
"m  c #654E39",
"M  c #734231",
"N  c #7B4231",
"B  c #724833",
"V  c #7F4834",
"C  c #6F5333",
"Z  c #66513A",
"A  c #745435",
"S  c #7A5435",
"D  c #7C5936",
"F  c #7D553A",
"G  c #70583C",
"H  c #7E5D38",
"J  c #484341",
"K  c #574845",
"L  c #5A4D49",
"P  c #5A5654",
"I  c #5C5858",
"U  c #635341",
"Y  c #6D5941",
"T  c #65514C",
"R  c #6B5B4D",
"E  c #785D41",
"W  c #705E4A",
"Q  c #695E5C",
"!  c #72614E",
"~  c #7A644A",
"^  c #64605F",
"/  c #736452",
"(  c #786050",
")  c #74675B",
"_  c #7C6E59",
"`  c #7C705E",
"'  c #726662",
"]  c #7A7166",
"[  c #7E776C",
"{  c #7F7F7D",
"}  c #814631",
"|  c #844A32",
" . c #8B4D33",
".. c #875034",
"X. c #8C5035",
"o. c #805D37",
"O. c #8C563B",
"+. c #805E39",
"@. c #955435",
"#. c #9A5735",
"$. c #9C5936",
"%. c #995938",
"&. c #A25E37",
"*. c #A15F39",
"=. c #8A643C",
"-. c #95633F",
";. c #98653B",
":. c #976C3F",
">. c #9E683F",
",. c #A5633B",
"<. c #AC6539",
"1. c #B46B3B",
"2. c #B96F3C",
"3. c #BB723E",
"4. c #856644",
"5. c #886642",
"6. c #8D6A45",
"7. c #846A4C",
"8. c #926E46",
"9. c #9B6E40",
"0. c #9A7242",
"q. c #887057",
"w. c #89725A",
"e. c #A46C40",
"r. c #AD6E41",
"t. c #A47342",
"y. c #AD7344",
"u. c #A27848",
"i. c #AB7D48",
"p. c #B57241",
"a. c #BC7641",
"s. c #B67A44",
"d. c #BB7B44",
"f. c #B67F48",
"g. c #807263",
"h. c #8C7B61",
"j. c #867A6B",
"k. c #817E7C",
"l. c #C27E45",
"z. c #AF824C",
"x. c #BD864C",
"c. c #BF8C4F",
"v. c #96876C",
"b. c #898177",
"n. c #C58147",
"m. c #C68349",
"M. c #C9864B",
"N. c #C38A4D",
"B. c #CD8E4E",
"V. c #CD8D4E",
"C. c #CB8A4C",
"Z. c #C49051",
"A. c #CF9050",
"S. c #CF9150",
"D. c #D09151",
"F. c #D19352",
"G. c #D39754",
"H. c #D39654",
"J. c #D29553",
"K. c #D49855",
"L. c #D49955",
"P. c #D59A56",
"I. c #D79C57",
"U. c #D79D57",
"Y. c #D59A56",
"T. c #D89E58",
"R. c #D89E58",
/* pixels */
"> r '   { g.4.=.-.O.d i i q < $ X X $ 2 q i i i i i i i i i i q < r '         k.",
"r u       g.7.4.F B q 3 3 < > O X X + , 2 3 3 3 3 3 3 3 3 3 3 3 8 u             ",
"'           g.R 9 & + O O O X X . . X o O O O O O O O O O O O = L               ",
"              I : @ X . . . . . . . . . . . . . . . . . . . . * ^               ",
"                I J @ . . . . . . . . . . . . . . . . . . . . * ^               ",
"j.              g.! j w w w w w w 6 & O o . . o % 4 6 w w w w j /               ",
"E ~           g.7.8.u.i.i.i.i.i.i.0.A w O . . % g H 0.i.i.i.i.u.4.~             ",
"=.6.w.      ) q.8.t.N.D.G.K.I.I.K.N.9.A 6 % & w o.t.N.K.I.I.K.N.9.5.w.      [ b.",
"c.z.6.m & - G 8.y.s.a.l.M.D.K.K.V.m.f.9.A x C o.t.f.M.D.K.K.V.m.f.t.5.Z 7 h ` v.",
"T.c.=.g % & C 9.f.m.a.a.m.V.K.G.M.l.d.e.S C +.:.s.m.M.V.K.G.M.l.d.e.S g & t _ v.",
"T.c.=.g % & C 0.N.A.m.l.m.V.K.G.M.a.,...p e D :.s.m.M.V.K.G.M.a.,...p , % t _ v.",
"K.x.=.g % & C 0.N.A.m.l.l.m.V.V.n.p.%.v 2 0 A :.s.n.n.m.V.V.n.p.%.v 2 $ # t _ v.",
"V.f.=.g % & C 9.f.m.a.3.3.3.a.a.3.<.@.v 2 0 A :.s.l.a.3.a.a.3.<.@.v 2 $ # t _ v.",
"M.s.=.g % & C :.s.a.1.<.&.&.<.<.1.<.@.v 2 5 x o.t.s.3.2.2.1.<.&. .s 2 $ # t _ v.",
"M.s.=.g % & C :.s.a.*. .} } @.&.<.<.@.v 2 > & w o.t.s.a.2.<.$. .N i < $ # t _ v.",
"M.s.=.g % & C :.s.p.%.} s s | $.<.<.$.| p < O & g D ;.,.,.#. .N i 3 > % # t _ v.",
"M.s.=.g % & C :.s.p.%.} s s | $.<.1.<.$.| a < $ & 4 e a c f s i 3 > O o o t _ v.",
"M.s.=.g % & C :.s.a.*. .} } @.$.,.<.<.&.@.v 2 $ X X + , 2 3 3 < > O X . o t _ v.",
"M.s.=.g % & C :.s.a.1.<.&.&.<.,.%.@.#.@. .v 2 $ X . X o O O O O X X . . o t _ v.",
"s.e.S w + % g D ;.,.,.&.&.&.&.#. .} | | N a < O X o % 4 6 w w 6 & O o . o t / h.",
"%...p , o o % 4 e a c N N N N f s s s a q < O X . % g H 0.i.i.0.A w O . o 7 U ~ ",
" .v 2 $ X . . X + , 2 3 3 3 3 3 3 3 3 < > O X o % w o.t.N.A.A.x.9.A 6 % @ ; k Y ",
" .v 2 $ X . . . X o O O O O O O O O O O X X . % g o.t.s.a.a.a.a.s.9.A w & ; k Y ",
"} s 2 $ X . . o % 4 6 w w w w w w 6 & O o . . & C :.s.a.1.<.&.,.r.>.S g & ; k Y ",
"s i < $ X . . % g H 0.i.i.i.i.i.i.0.A w O . . & C :.s.a.*. .} N N M q , % ; k Y ",
"s i < $ X o % w o.t.N.K.I.I.K.H.D.x.9.A 6 O o & C :.s.p.%.} s i i q < $ # ; k Y ",
"} s 2 $ X % g o.t.f.M.D.K.K.V.m.l.a.s.9.A w O & C :.s.p.%.} s i i q < $ # ; k Y ",
" .v 2 $ X & C :.s.m.M.V.K.G.M.a.1.<.r.>.S g 4 w o.t.s.p.*. .} f s i < $ # ; k Y ",
" .v 2 $ X & C :.s.m.M.V.K.G.M.a.*.@.| M q w b o.t.s.3.1.<.<.&.#. .s 2 $ # ; k Y ",
" .v 2 $ X & C :.s.n.n.m.V.V.n.p.*. .N i < 0 A :.s.l.a.3.3.1.<.&. .s 2 $ # ; k Y ",
" .v 2 $ X & C :.s.l.a.3.a.a.3.1.<.&. .s 2 0 A :.s.n.n.l.l.p.*. .N i < $ # ; k Y ",
"v a y 1 o - G 6.9.,.,.&.&.&.&.&.&.#.| a < , l D ;.r.y.p.r.,.X.N i q 0 7 % 7 U W ",
"2 y T       ) ( n a c N N N N N N s q < O o % 4 e z N V V N d i 3 0 T       ) ] ",
"r u           Q u 0 3 3 3 3 3 3 3 < > O X . . X + , 2 3 3 3 3 3 8 u             ",
"'               Q K = O O O O O O O X X . . . . X o O O O O O = L               ",
"                  P * . . . . . . . . . . . . . . . . . . . . * ^               ",
"                  P * . . . . . . . . . . . . . . . . . . . . * ^               ",
"j.              g.! j w w w w w w w w w w w w w w w w w w w w j /               ",
"E ~           g.7.8.u.i.i.i.i.i.i.i.i.i.i.i.i.i.i.i.i.i.i.i.i.u.4.~             ",
"A E j.        g.4.0.Z.T.T.T.T.T.T.T.T.T.T.T.T.T.T.T.T.T.T.T.T.c.=.E j.        k."
};
