/* XPM */
static char *_3026dbfa40743d6d21d78f137e84640pM3hUvFvt8WTtIMF[] = {
/* columns rows colors chars-per-pixel */
"40 40 143 2 ",
"   c None",
".  c #231D19",
"X  c #2A1F1B",
"o  c #26201D",
"O  c #2C211D",
"+  c #33241D",
"@  c #39261F",
"#  c #35291F",
"$  c #3E2A1F",
"%  c #2C2523",
"&  c #2E2825",
"*  c #352521",
"=  c #3E2621",
"-  c #322B27",
";  c #3B2A22",
":  c #352D2B",
">  c #392F2C",
",  c #35302D",
"<  c #38332F",
"1  c #3C3733",
"2  c #422722",
"3  c #432B22",
"4  c #492C24",
"5  c #472C28",
"6  c #4B2F2B",
"7  c #512C27",
"8  c #562E28",
"9  c #5C2F2A",
"0  c #453225",
"q  c #4C3323",
"w  c #41332B",
"e  c #4A3528",
"r  c #4B3A2A",
"t  c #543524",
"y  c #593527",
"u  c #523826",
"i  c #5D3C27",
"p  c #5C312B",
"a  c #543D2C",
"s  c #5D3D2B",
"d  c #493531",
"f  c #423932",
"g  c #4D3932",
"h  c #4D3E3A",
"j  c #543531",
"k  c #513B37",
"l  c #5C3B32",
"z  c #613C27",
"x  c #62342A",
"c  c #6B372D",
"v  c #643C2A",
"b  c #6A3B2C",
"n  c #763E2F",
"m  c #55402A",
"M  c #59432C",
"N  c #45413F",
"B  c #4E413D",
"V  c #5B4434",
"C  c #524139",
"Z  c #55483F",
"A  c #5C493F",
"S  c #66422A",
"D  c #6C432A",
"F  c #6D4A2E",
"G  c #74442D",
"H  c #7B462F",
"J  c #77492C",
"K  c #7B4C2D",
"L  c #6E4F32",
"P  c #624A3B",
"I  c #7A4230",
"U  c #7C4E32",
"Y  c #6F5234",
"T  c #6C563E",
"R  c #715334",
"E  c #7C5434",
"W  c #765836",
"Q  c #7B5936",
"!  c #76543D",
"~  c #7C5C39",
"^  c #4A4643",
"/  c #554B43",
"(  c #5E4D41",
")  c #5F5043",
"_  c #635445",
"`  c #6A5542",
"'  c #6E5B46",
"]  c #7B6347",
"[  c #824F2F",
"{  c #86512F",
"}  c #804730",
"|  c #854C31",
" . c #8D4F33",
".. c #825536",
"X. c #895230",
"o. c #8E5E37",
"O. c #855638",
"+. c #8B5D3C",
"@. c #935533",
"#. c #955933",
"$. c #9A5D36",
"%. c #A15E37",
"&. c #82623E",
"*. c #9E6136",
"=. c #9D623B",
"-. c #9C6B3E",
";. c #A66337",
":. c #A56C3D",
">. c #AD693B",
",. c #846646",
"<. c #926C45",
"1. c #977041",
"2. c #9E7242",
"3. c #937048",
"4. c #99734A",
"5. c #A36840",
"6. c #A27644",
"7. c #AC7040",
"8. c #A37847",
"9. c #A97945",
"0. c #AB7D48",
"q. c #B47742",
"w. c #BC7641",
"e. c #B87C45",
"r. c #AD814B",
"t. c #B4814A",
"y. c #B5834B",
"u. c #B6844C",
"i. c #BB834A",
"p. c #BC8249",
"a. c #B8874D",
"s. c #B8884E",
"d. c #C38148",
"f. c #C3864C",
"g. c #C0894D",
"h. c #C18A4E",
"j. c #CB8E4F",
"k. c #C48E50",
"l. c #C39051",
"z. c #C69152",
"x. c #CD9050",
"c. c #CE9251",
"v. c #D19754",
/* pixels */
"                                                                                ",
"                                                                                ",
"                                                                                ",
"                                                                                ",
"                                                                                ",
"          - o : N                                           - o : N             ",
"          w ; f / /                                         w ; f / /           ",
"      _ T ~ ~ &.,.] _                                   _ T ~ ~ &.,.] _         ",
"    _ r R 8.l.s.r.3.' ^                               _ r R 8.l.s.r.3.' ^       ",
"    ) r R 0.v.g.0.<.` ^                               ( e L 6.c.g.u.4.' ^       ",
"    ) r R 9.c.e.:.+.` ^                               A 0 F -.d.p.t.4.' ^       ",
"    ) r R 9.j.q.*...P N                               C 0 S $.w.e.t.4.' ^       ",
"    ) r R 9.j.q.*.U a : & X . . . . . . . . . . % < f w 3 S $.w.e.t.4.' ^       ",
"    ) r R 9.j.q.*.J q X . . . . . . . . . . . . . . O # $ S $.w.e.t.4.' ^       ",
"    ) r R 9.j.q.*.J q # 0 m M M M M M M M a u q 3 @ + @ 3 S $.w.e.t.4.' ^       ",
"    ) r R 9.j.q.*.K i e Y 1.6.6.6.6.6.6.2.-.o.| D y 4 3 3 S $.w.e.t.4.' ^       ",
"    ) r R 9.j.q.*.K s a &.a.z.z.z.z.z.k.g.i.7.$.| b 7 4 3 S $.w.e.t.4.' ^       ",
"    ) r R 9.j.q.*.K u ; M W ~ ~ ~ ~ ~ ~ Q E F S y 4 = = 3 S $.w.e.t.4.' ^       ",
"    ) r R 9.j.q.*.J 0 o O # # # # # # # # # # + O X X # $ S $.w.e.t.4.' ^       ",
"    ) r R 9.j.q.*.K e % % . . . . . . . . . . . o % - ; ; S $.w.e.t.4.' ^       ",
"    ) r R 9.j.q.*.E V 1 ,                             d 3 S $.w.e.t.4.' ^       ",
"    ( r L 6.f.q.*...P N                               C 0 S $.w.q.9.<.` ^       ",
"    Z 3 s O.5.=.$.U a : & X . . . . . . . . . . % < f w 3 z @.>.=.+.! ( ^       ",
"    B * 4 b } X.#.J q X . . . . . . . . . . . . . . O # $ z X.%.| b l C ^       ",
"    h * 3 x I | #.J q + $ q q q q q q q q 4 3 @ + + + @ 3 i X.$.} x j h ^       ",
"    h * 3 x I | #.J t 3 z [ X.X.X.X.X.{ [ J b 8 7 4 4 3 3 i X.$.} x j h ^       ",
"    h * 3 x I | #.K y 0 G $.;.;.;.;.;.;.$.@.H x 9 8 7 4 3 i X.$.} x j h ^       ",
"    h * 3 x I | #.J t @ q S D D D D D D S z t 4 2 2 = = 3 i X.$.} x j h ^       ",
"    h * 3 x I | #.J 0 . O + # # # # # # + + O X X X X # $ i | $.} x j h ^       ",
"    h * 3 p n I | D e % % . . . . . . . . . . . o % - ; ; t H  .G p j h ^       ",
"    h * 2 p c b b s g 1 ,                             w * 4 v n c p j h ^       ",
"    B ; 2 8 p p 9 j h ^                               B ; 2 8 p p p j h ^       ",
"      B d 5 2 6 j k B                                   B d 5 2 6 j k B         ",
"          : O > h ^                                         : O > h ^           ",
"          - o : N                                           - o : N             ",
"                                                                                ",
"                                                                                ",
"                                                                                ",
"                                                                                ",
"                                                                                "
};
