/* XPM */
static char *_17be8ea8fd54fe7db7a0413adceee7bjbXjcgWIr67fIImY[] = {
/* columns rows colors chars-per-pixel */
"40 40 164 2 ",
"   c None",
".  c #0F0D0F",
"X  c #100F10",
"o  c #1E0F10",
"O  c #121212",
"+  c #181616",
"@  c #1B1718",
"#  c #1B1A1B",
"$  c #210F11",
"%  c #211214",
"&  c #211B11",
"*  c #211E1B",
"=  c #311215",
"-  c #3D1216",
";  c #381A1C",
":  c #0F2518",
">  c #102518",
",  c #18271E",
"<  c #1D2918",
"1  c #152A1C",
"2  c #0C361C",
"3  c #22201F",
"4  c #2B251C",
"5  c #2A2215",
"6  c #362B14",
"7  c #3A2C14",
"8  c #32291A",
"9  c #39341B",
"0  c #3D1E21",
"q  c #1A2920",
"w  c #242222",
"e  c #292625",
"r  c #2A2827",
"t  c #2D2B2A",
"y  c #332B20",
"u  c #312E2C",
"i  c #352625",
"p  c #3B3225",
"a  c #34312F",
"s  c #2E3230",
"d  c #353332",
"f  c #393533",
"g  c #3C3937",
"h  c #383638",
"j  c #3D3B3B",
"k  c #421216",
"l  c #4B1317",
"z  c #441B1E",
"x  c #571419",
"c  c #6D171D",
"v  c #73171D",
"b  c #75191F",
"n  c #7D181F",
"m  c #453414",
"M  c #47371A",
"N  c #533D15",
"B  c #4E3E20",
"V  c #592F31",
"C  c #423638",
"Z  c #423E3C",
"A  c #4B3C3B",
"S  c #5A393C",
"D  c #5B2A2B",
"F  c #7E232A",
"G  c #66393E",
"H  c #0C4F25",
"J  c #104222",
"K  c #0C5227",
"L  c #0B5C29",
"P  c #315924",
"I  c #0A672D",
"U  c #0A6D2F",
"Y  c #0A6F30",
"T  c #0A7030",
"R  c #3B7B2D",
"E  c #3C742A",
"W  c #534016",
"Q  c #584116",
"!  c #785719",
"~  c #45413E",
"^  c #4A463F",
"/  c #417C2D",
"(  c #7D6C22",
")  c #7A7021",
"_  c #464545",
"`  c #494643",
"'  c #4F4B47",
"]  c #4D4A48",
"[  c #534E4B",
"{  c #504744",
"}  c #5C564E",
"|  c #55504C",
" . c #5A5651",
".. c #5D5954",
"X. c #724041",
"o. c #615D57",
"O. c #635E59",
"+. c #6A5752",
"@. c #64605B",
"#. c #69645E",
"$. c #6E6964",
"%. c #716D66",
"&. c #7F6A64",
"*. c #77726B",
"=. c #79746D",
"-. c #7D7771",
";. c #7E7872",
":. c #851820",
">. c #931B23",
",. c #9E1B24",
"<. c #A81C26",
"1. c #B21D27",
"2. c #BF1E29",
"3. c #9E262E",
"4. c #9E3036",
"5. c #C51F2A",
"6. c #CC1F2B",
"7. c #D2202C",
"8. c #805E1B",
"9. c #81641C",
"0. c #90671B",
"q. c #A6771D",
"w. c #B27F1E",
"e. c #A47721",
"r. c #A47F20",
"t. c #C53940",
"y. c #8A5856",
"u. c #B5464B",
"i. c #837C76",
"p. c #857F79",
"a. c #AC6B68",
"s. c #D1444B",
"d. c #67862B",
"f. c #B4811F",
"g. c #B8831F",
"h. c #9D9227",
"j. c #9E9428",
"k. c #A68020",
"l. c #A78623",
"z. c #BF8820",
"x. c #AC9426",
"c. c #B19827",
"v. c #BE9C26",
"b. c #C99021",
"n. c #D7A225",
"m. c #8A837C",
"M. c #87807A",
"N. c #928B84",
"B. c #978F88",
"V. c #9B938B",
"C. c #A58D86",
"Z. c #A2978F",
"A. c #A49B93",
"S. c #AA9E95",
"D. c #B39C94",
"F. c #AEA69C",
"G. c #A9A197",
"H. c #B1A99F",
"J. c #B7AEA4",
"K. c #BEB5AA",
"L. c #D08C88",
"P. c #D29C96",
"I. c #C0B7AC",
"U. c #C8BFB3",
/* pixels */
"                                                                                ",
"                                                                                ",
"              _ _ _ _                                                           ",
"            h C S S C h                                                         ",
"            # 0 F F 0 w h _ _ _ _ _ _ _ _                                       ",
"            O = v n l z V G G G G G G S C h                                     ",
"            O % - x n >.3.3.3.3.3.3.3.F 0 w h                                   ",
"            # @ % - b >.>.,.1.2.2.2.2.,.x ; u h                                 ",
"              d @ % - l l c <.6.6.6.6.2.,.b ; @                                 ",
"                w @ % $ $ k :.1.5.7.7.5.<.v = O                                 ",
"                  d @ O X $ k v 1.7.7.1.c - o + d _ _ _ _                       ",
"                    @ # a Z A X.u.s.t.4.D i e u _ [ [ ] j h                     ",
"                    O d =.V.Z.D.P.L.a.y.+.} }  .o.@.@.[ t @                     ",
"                    O Z A.U.H.S.D.C.&.+... . . . . . ._ 3 O                     ",
"                    O ` F.K.*.| [ { g u u u u u u u u e O + d                   ",
"                    O Z A.A.' t ` [ ` ` ` ~ Z g g g g f d d h h                 ",
"                    O d -.;.f f i.A.A.A.A.V.M.;.-.-.-.-.=.o.d @                 ",
"                    O t #.#.t Z A.U.H.F.I.J.N.m.V.V.m.m.V.;.d X                 ",
"                    O t o.o.r ~ F.K.*.$.A.V.o...N.N.....N.p.d X                 ",
"                    O t o.o.r Z G.F.[ ` N.N.~ ~ m.m.~ ~ m.m.f X                 ",
"                    O t o.o.r g B.V.Z g m.m.g g m.m.g g m.m.f X                 ",
"                    O t o.o.r f m.m.f f m.m.f f m.m.f f m.m.f X                 ",
"                    O t o.o.r f m.m.f f m.m.f f m.m.f f m.m.f X                 ",
"                    O t o.o.r f m.N.[ [ N.N.[ [ N.N.[ [ N.m.f X                 ",
"                    O t o.o.r f m.A.m.m.A.A.m.m.A.A.m.m.A.m.f X                 ",
"                    O w ' ' w t $.m.i.i.m.m.i.i.m.m.i.i.m.$.t X                 ",
"                  h @ + r r + # f ~ Z Z ~ ~ Z Z ~ ~ Z Z ~ f # .                 ",
"                h s , > 1 1 > < 9 B B B B B B B B B B M 4 # @ @                 ",
"                # q J H K K H P ( e.e.e.e.e.e.e.e.e.e.8.7 @ d                   ",
"                O : K I I I I E l.b.w.q.q.q.q.q.q.q.q.8.6 O                     ",
"              h @ : K U U U U / x.z.! N N N N N N N N m & O                     ",
"            h s , 2 L Y T T T / c.g.N 5 y p p p p p p y + .                     ",
"            # q J K I T T T T / c.f.M 4 ^ } } } } } } ^ 3 X                     ",
"            O < P E R R R R R d.v.f.m e } %.%.%.%.%.%. .e X                     ",
"            O 9 ) h.h.j.j.j.j.c.n.f.m e ..*.=.=.=.=.=...e X                     ",
"            O 6 9.r.k.k.k.k.k.k.f.0.7 w ' o.@.@.@.@.@.' w X                     ",
"            O & m W W W W W W W Q m & + r a a a a a a r + .                     ",
"            # * 4 8 8 8 8 8 8 8 8 4 # @ w w w w w w w w @ +                     ",
"                                                                                ",
"                                                                                "
};
