/* XPM */
static char *a244495ca9874421a015fdb41a104b995mvp1fjdR9x4ur5b[] = {
/* columns rows colors chars-per-pixel */
"40 40 168 2 ",
"   c None",
".  c #231C19",
"X  c #1F261D",
"o  c #1E2D1C",
"O  c #1D341B",
"+  c #21231B",
"@  c #28211F",
"#  c #212A1B",
"$  c #20341D",
"%  c #1C2F22",
"&  c #1A3424",
"*  c #193B24",
"=  c #1F3728",
"-  c #173E29",
";  c #1A3A28",
":  c #262D23",
">  c #2C2A26",
",  c #2D2E29",
"<  c #312A27",
"1  c #2B3325",
"2  c #253C23",
"3  c #233629",
"4  c #2E352B",
"5  c #223C2C",
"6  c #2B392F",
"7  c #35322E",
"8  c #38322F",
"9  c #333B2E",
"0  c #2D3A31",
"q  c #3A3732",
"w  c #363C33",
"e  c #3C3A36",
"r  c #433F3E",
"t  c #18431E",
"y  c #164F1D",
"u  c #14541B",
"i  c #18541E",
"p  c #135E1D",
"a  c #13611E",
"s  c #0B7D1F",
"d  c #154C24",
"f  c #1B4D20",
"g  c #15452C",
"h  c #1C402C",
"j  c #134B2D",
"k  c #0F5C2F",
"l  c #1F5225",
"z  c #1C5823",
"x  c #11532E",
"c  c #10582E",
"v  c #2F442D",
"b  c #284C2A",
"n  c #30472F",
"m  c #255429",
"M  c #2A522D",
"N  c #225A29",
"B  c #364137",
"V  c #3A4134",
"C  c #344932",
"Z  c #3C443A",
"A  c #3B4F39",
"S  c #2E5231",
"D  c #315634",
"F  c #39553B",
"G  c #345A38",
"H  c #0F6223",
"J  c #0D6C26",
"K  c #0D632F",
"L  c #0B6E2E",
"P  c #106620",
"I  c #1B6326",
"U  c #166E25",
"Y  c #186B25",
"T  c #1E6E2C",
"R  c #0D7623",
"E  c #0D7C23",
"W  c #09732E",
"Q  c #077F2A",
"!  c #087B2B",
"~  c #147323",
"^  c #1A7227",
"/  c #167A27",
"(  c #0C6630",
")  c #0B6B30",
"_  c #0A7030",
"`  c #22612A",
"'  c #236A2F",
"]  c #2C6133",
"[  c #42443D",
"{  c #434A3E",
"}  c #454140",
"|  c #494444",
" . c #414B40",
".. c #4B4945",
"X. c #445543",
"o. c #4C5049",
"O. c #53514F",
"+. c #09821D",
"@. c #068D1F",
"#. c #088A1F",
"$. c #04941F",
"%. c #03991F",
"&. c #078525",
"*. c #098322",
"=. c #0A8023",
"-. c #0C8321",
";. c #098520",
":. c #0A8520",
">. c #088127",
",. c #088226",
"<. c #088223",
"1. c #078920",
"2. c #078A20",
"3. c #068B20",
"4. c #078A21",
"5. c #068923",
"6. c #068B23",
"7. c #078D20",
"8. c #058F20",
"9. c #078E20",
"0. c #058D22",
"q. c #058C23",
"w. c #058D23",
"e. c #068C22",
"r. c #058E23",
"t. c #058F23",
"y. c #068925",
"u. c #058B24",
"i. c #058B25",
"p. c #068B25",
"a. c #068826",
"s. c #068926",
"d. c #058C24",
"f. c #058D24",
"g. c #068C24",
"h. c #068C25",
"j. c #058E24",
"k. c #058F24",
"l. c #068B23",
"z. c #088820",
"x. c #0A8822",
"c. c #078029",
"v. c #078129",
"b. c #078228",
"n. c #078328",
"m. c #078329",
"M. c #078428",
"N. c #078129",
"B. c #059021",
"V. c #059121",
"C. c #049320",
"Z. c #059320",
"A. c #059221",
"S. c #049321",
"D. c #049122",
"F. c #059023",
"G. c #059123",
"H. c #049222",
"J. c #049322",
"K. c #039720",
"L. c #049420",
"P. c #049520",
"I. c #049421",
"U. c #049521",
"Y. c #049620",
"T. c #049720",
"R. c #049521",
"E. c #039820",
/* pixels */
"                        [ 8 > @ . . . . . . . . . . @ e                         ",
"                        [ 9 1 # # # # # # # # # # # # V                         ",
"                      { S N z i u u u u u u u u u u i M X.o...                  ",
"                ..} e 9 N ~ E s +.+.+.+.+.+.+.+.+.+.s I n w q q                 ",
"              F G D M m Y -.#.@.@.2.z.z.z.z.z.z.z.z.*.U N m m M D               ",
"             .] T ^ ~ ~ -.8.$.$.H.p.,.Q Q ! ! ! ! ! ! R ~ ~ ~ U N C             ",
"           .F ' E :.x.#.$.%.%.%.L.p.! W W W W W W W ! Q z.2.#.#.Y b C           ",
"        F ] ' / x.2.&.&.8.L.K.%.L.&.! W W W ! c.c.M.&.,.,.&.8.8.E Y ` D         ",
"      | G T E x.$.8.c.Q p.H.L.E.L.&.! W W W Q p.8.H.8.&.Q c.h.H.8.#.~ m w       ",
"      r D ^ #.@.$.8.c.! c.p.h.h.p.c.W W _ W c.8.H.L.H.&.! Q &.p.8.8.~ l 4 Z     ",
"      e M ~ #.$.%.8.c.W ! Q Q Q Q ! W _ _ W c.H.L.L.L.&.! ! ! c.p.H.R f 1 w     ",
"    [ 9 m ~ 2.8.L.p.Q W W W W W W W _ _ _ W c.h.H.L.H.&.W W W W c.h.R y $ v     ",
"[ [ M N I R ,.&.&.c.! W W W W W W W _ _ _ W ! c.&.&.&.Q W W W W ! c.R P i m A { ",
"8 9 N ~ R ! ! ! ! W W _ _ _ _ _ _ _ _ _ _ _ W W W ! W W W _ _ W W W ! E E I v 9 ",
"> 1 z E *.,.c.Q Q ! W W _ _ _ _ _ _ _ _ _ _ W W W W W W _ _ _ W W ! ,.2.:.I 2 1 ",
"@ # i s 2.2.h.p.p.M.! W W _ _ _ _ _ _ _ _ _ _ W W W W _ _ _ _ W Q &.h.H.#.a 2 : ",
". # u +.@.H.L.L.L.p.Q W W _ _ _ _ _ _ _ _ _ _ _ _ _ _ _ _ _ _ W Q p.H.L.@.a O # ",
". # u +.@.$.K.K.K.h.Q W W _ _ _ _ _ _ _ _ _ _ _ _ _ _ _ _ _ _ W ! c.p.H.@.a O # ",
". # u +.$.$.%.%.%.h.Q W W _ _ _ _ _ _ _ _ _ _ _ _ _ _ _ _ _ _ _ W W c.h.2.p O # ",
". # u +.8.8.8.8.8.&.! W W ! W W W _ _ _ _ _ _ _ W W ! ! ! ! W W W W Q p.2.p O # ",
". # u +.2.&.c.c.Q ! W W Q &.c.! W W _ _ _ _ _ _ W c.&.p.p.c.! W W W Q p.2.p O # ",
". # u +.z.Q W W W W W W Q p.&.Q W W _ _ _ _ _ _ ! &.H.H.L.p.Q W W _ ! p.2.p O # ",
". # u +.z.Q W W W W _ W ! c.Q W W W _ _ _ _ _ _ ! p.H.L.L.h.Q W W _ ! p.2.p O # ",
". # u +.z.! W W _ _ _ _ W W W W _ _ _ _ _ _ _ _ ! p.L.L.%.h.Q W W _ ! p.2.p O # ",
". # u +.z.! W W _ _ _ _ W W W _ _ _ _ ) ) K K K W Q p.h.h.&.! W W _ ! p.2.p O # ",
". # u +.z.! W W _ _ _ _ _ W _ _ _ _ _ ) k c x x K W Q Q Q ! W W _ _ ! p.2.p O # ",
". # u s ,.! W W _ ) ) ) ) ) ) ) ) ) ) K c j j j x K W W W L L ) ) ) ! &.:.p O # ",
". # t H J L L L _ ) K k k k k k K K ) K x j j j x K L K K K k k K ) L W J d o # ",
". + & d c K ) ) _ K k x x j j j x k ) K x j j g x K ) k x x j x k ) K k x * X + ",
". + & h x K ) ) _ K x j j j j j j k ) K k x x x k K ) k x j j j k ) K c j * X + ",
". + & h x K ) ) _ K x j j j g g j k ) ) K K K K K ) ) k j j j j k ) K x g & + + ",
". + % - j k ) ) ) K x j j g g g j k ) ) ) ) ) ) ) ) ) k x j j j k ( K x g & + + ",
". + % - j x k K ) K x j j g g g j k ) ) ) ) K k K ) ) K k k k k k k x j g & + + ",
". + % - g j x k ) K x j j g g g j k ) ) ) ) K x k K ) ) ) ) ) ( k x j j h & + + ",
"< , 3 5 h g j x k k x j g g g g j x k K K K c j x k K K K K K K x j g h ; 3 , , ",
"    Z 0 5 h g j x x j g g g g g g j x x x x j j j x x x x x x x j j h & & 0     ",
"    O.e 6 5 h h g g h h h h h h h g g g g g g h h g g g g g g g g h ; & : Z     ",
"        B 0 5 = & & & & & & & & & & & & & & & & & & & & & & & & & & 3 0 [       ",
"          w 4 : + + X X X X + + + + + + + + X X + + + + + + + + + X ,           ",
"          e 7 > + . + + + + + + + + + + . + + + + + + + + + + + + + ,           "
};
