/* XPM */
static char *_4221a372cc04116fedb3a3c64a9bb1cl7cejE20JTdZZDro[] = {
/* columns rows colors chars-per-pixel */
"20 20 19 1 ",
"  c None",
". c #231C19",
"X c #2D2420",
"o c #412622",
"O c #492924",
"+ c #67332D",
"@ c #735535",
"# c #6D5941",
"$ c #7B7978",
"% c #8A4C33",
"& c #935234",
"* c #88653C",
"= c #B66B3A",
"- c #996240",
"; c #817E7C",
": c #96876C",
"> c #C58147",
", c #C9874B",
"< c #D89E58",
/* pixels */
"o $*-++o.O++++++o  ;",
"   $............    ",
"    $...........    ",
"@  $*<<<<@..*<<<@  ;",
"<@.*>=,<>,@*>,<>,@X:",
"<@.*<>,<>%o*>,<>%oX:",
",@.*>====%o*>===%oX:",
",@.*>%+&=%o.*>=%+oX:",
",@.*>%+&==%o.O++o.X:",
",@.*>===%&%o......X:",
"%o..O+++++o..*<<@.X#",
"%o..........*>==,@X#",
"+o..*<<<<@..*>%++oX#",
"%o.*>,<>=,@.*>%++oX#",
"%o.*>,<>%+o*>===%oX#",
"%o.*>====%o*>,>%+oX#",
"o  $O++++o..O+++o  ;",
"    $...........    ",
"    $...........    ",
"@  $*<<<<<<<<<<<@  ;"
};
