/* XPM */
static char *d1107da27dd74caaa53ec42953abd46eIciZBQegN19nqy2L[] = {
/* columns rows colors chars-per-pixel */
"10 10 38 1 ",
"  c None",
". c #55331B",
"X c #6C3D1B",
"o c #6F523D",
"O c #726F3D",
"+ c #535353",
"@ c #6F5F55",
"# c #706F55",
"$ c gray42",
"% c #904C1B",
"& c #B9761B",
"* c #F37C1B",
"= c #A9A01B",
"- c #8D8730",
"; c #D2881B",
": c #F4891B",
"> c #F5921B",
", c #C1B81B",
"< c #F7A01B",
"1 c #F7A41B",
"2 c #F8A61B",
"3 c #F8AE1B",
"4 c #F9AE1B",
"5 c #F9B71B",
"6 c #FABC1B",
"7 c #FBC41B",
"8 c #FBC91B",
"9 c #FCCC1B",
"0 c #E8DC1B",
"q c #FCD01B",
"w c #FCD11B",
"e c #FDD51B",
"r c #FDD81B",
"t c #FDD91B",
"y c #FDDD1B",
"u c #FDE01B",
"i c #FEE61B",
"p c #88817C",
/* pixels */
"  $$$$$   ",
" #=====-  ",
"@&eeeey0- ",
".:79ut8y,+",
".:51ettq,+",
".:3:7qiq,+",
".:6<>1qq,+",
".*<6237q,+",
"p%*>>>>;O ",
" pXXXXXo  "
};
