/* XPM */
static char *_5bfda88a5164cb7dba739afd3170a4eaK4qKnmUOi8TxHev[] = {
/* columns rows colors chars-per-pixel */
"16 16 32 1 ",
"  c None",
". c #231C19",
"X c #21201B",
"o c #21211B",
"O c #20241D",
"+ c #20291A",
"@ c #352F2D",
"# c #37312F",
"$ c #34332E",
"% c #323A2D",
"& c #15422B",
"* c #16422B",
"= c #14462D",
"- c #14492A",
"; c #134A2D",
": c #124E2E",
"> c #11522C",
", c #0A702E",
"< c #09772D",
"1 c #09742E",
"2 c #09782D",
"3 c #0B6C30",
"4 c #0A7030",
"5 c #494543",
"6 c #068C1E",
"7 c #068D1E",
"8 c #03981F",
"9 c #03991F",
"0 c #0C8120",
"q c #078920",
"w c #049122",
"e c #049521",
/* pixels */
"     @.....     ",
"   5#066666%#   ",
"  506882111q6%  ",
" 5082e814we2e6% ",
" #6811144e811e+ ",
"@0114444411441q%",
".6ee144444444w8+",
".6881444444441e+",
".6214w1444we14e+",
".614414444e814e+",
".6144444:;,144e+",
".-34:;;3;=3:;3>X",
".*34;==3334;=3;X",
".*;3;==34:333:=X",
" #*;===;;=;;;=O ",
"  #XXXXXXXXXXX  "
};
