/* XPM */
static char *_43aa233aaa44d62daef5029caceb4c9BlYbMX5BwfLbOXVr[] = {
/* columns rows colors chars-per-pixel */
"21 21 52 1 ",
"  c None",
". c #0E0D0E",
"X c #0F0D0E",
"o c #0F0E0F",
"O c #100E0E",
"+ c #100F10",
"@ c #1C1A1A",
"# c #260F12",
"$ c #281012",
"% c #292011",
"& c #2A2011",
"* c #2B2111",
"= c #222020",
"- c #232120",
"; c #242221",
": c #292726",
"> c #2B2928",
", c #2A2A2A",
"< c #2B2A2B",
"1 c #2C2B2C",
"2 c #0B632B",
"3 c #0A642C",
"4 c #0A6F30",
"5 c #0A7030",
"6 c #6D6962",
"7 c #6E6A63",
"8 c #7B766E",
"9 c #7C776F",
"0 c #B81D28",
"q c #B81E28",
"w c #B91E28",
"e c #BA1E28",
"r c #D1202C",
"t c #D2202C",
"y c #876D67",
"u c #CE9321",
"i c #CF9421",
"p c #CD9F25",
"a c #CFA025",
"s c #E9A624",
"d c #EBA724",
"f c #89837A",
"g c #9E968F",
"h c #9F968F",
"j c #9F978F",
"k c #B2A9A0",
"l c #B3AAA1",
"z c #B9AFA6",
"x c #CDC3B7",
"c c #CEC5B9",
"v c #E7C7BC",
"b c #E8DDCF",
/* pixels */
"                     ",
"   1>>               ",
"   +w.>>>>>          ",
"   +#wwwww.>         ",
"    +##rrrw.         ",
"     +.#rr$.>>>      ",
"     +xcvy7777.      ",
"     +b>:@@@@@.>     ",
"     +f.xccjjjj.     ",
"     +8.b>z;k;k.     ",
"     +8.z.k.k.k.     ",
"     +8.k.k.k.k.     ",
"     +8.kjkjkjk.     ",
"    1.@.-------.     ",
"    +233uiiiiiO      ",
"   1.455s&&&&&.      ",
"   +2555sO7777.      ",
"   +paaasO8999.      ",
"   +&&&&&.@@@@.      ",
"                     ",
"                     "
};
