/* XPM */
static char *_c3c633b6b434a87fe9d82621a3e798atEUSXtg7ShkaBktU[] = {
/* columns rows colors chars-per-pixel */
"16 16 16 1 ",
"  c None",
". c #231C19",
"X c #31211D",
"o c #412C20",
"O c #592E29",
"+ c #483626",
"@ c #67332D",
"# c #773E30",
"$ c #4A4644",
"% c #985B33",
"& c #A66037",
"* c #B66B3A",
"= c #BD7540",
"- c #B3834B",
"; c #D19452",
": c #D89E58",
/* pixels */
"                ",
"                ",
"  .$        .$  ",
" +:-$      +:-$ ",
" +;%$      o=-$ ",
" +;%.......o=-$ ",
" +;%+:::;&Oo=-$ ",
" +;%.......o=-$ ",
" +;%$      o=-$ ",
" X#%.......o&O$ ",
" X#%o***&@Oo&O$ ",
" X#%.......o&O$ ",
" X@O$      X@O$ ",
"  .$        .$  ",
"                ",
"                "
};
