/* XPM */
static char *_d7c9587ca0e4844afe1aa8992fe4dfbOtydrcWS9uHnObbr[] = {
/* columns rows colors chars-per-pixel */
"30 30 150 2 ",
"   c None",
".  c #55331B",
"X  c #6C3D1B",
"o  c #5C3F2A",
"O  c #6D4325",
"+  c #604330",
"@  c #6D4A31",
"#  c #654D3D",
"$  c #734C30",
"%  c #6F523D",
"&  c #726F3D",
"*  c gray33",
"=  c #705C4E",
"-  c #7A614F",
";  c #7D7A4F",
":  c #6F6055",
">  c #706F55",
",  c #646464",
"<  c gray42",
"1  c #796C63",
"2  c #7B7963",
"3  c gray46",
"4  c #894D1B",
"5  c #904C1B",
"6  c #8A501B",
"7  c #99541B",
"8  c #99591B",
"9  c #B15C1B",
"0  c #BF661B",
"q  c #BF6C1B",
"w  c #B9761B",
"e  c #8A5228",
"r  c #8B5625",
"t  c #985E21",
"y  c #955828",
"u  c #8F5730",
"i  c #8C5F30",
"p  c #8B5C39",
"a  c #925E39",
"s  c #A25D28",
"d  c #966129",
"f  c #8D683D",
"g  c #946731",
"h  c #946E3E",
"j  c #807C3D",
"k  c #8D723D",
"l  c #9C7337",
"z  c #967931",
"x  c #95793E",
"c  c #AF6F25",
"v  c #B36122",
"b  c #B86D20",
"n  c #A6732A",
"m  c #A6782F",
"M  c #B57825",
"N  c #BB7821",
"B  c #C6671B",
"V  c #C76C1B",
"C  c #D26C1B",
"Z  c #C7761B",
"A  c #CD7C1B",
"S  c #DE791B",
"D  c #F37C1B",
"F  c #8F6040",
"G  c #8C684E",
"H  c #8F7349",
"J  c #8E6F59",
"K  c #8E7B5B",
"L  c #927B51",
"P  c #A9A01B",
"I  c #979029",
"U  c #9A942E",
"Y  c #8D8730",
"T  c #87833D",
"R  c #908B31",
"E  c #938D3B",
"W  c #969034",
"Q  c #9B9633",
"!  c #97903A",
"~  c #B68025",
"^  c #A19821",
"/  c #A49D2A",
"(  c #AC9229",
")  c #BB9025",
"_  c #B59F25",
"`  c #A28A30",
"'  c #A69F37",
"]  c #AEA529",
"[  c #A9A225",
"{  c #B4AA23",
"}  c #BDAF20",
"|  c #BCB024",
" . c #BBB22A",
".. c #D2881B",
"X. c #DE8B1B",
"o. c #D0961B",
"O. c #DC981B",
"+. c #EA871B",
"@. c #E98F1B",
"#. c #E0831B",
"$. c #F4831B",
"%. c #F4891B",
"&. c #E99A1B",
"*. c #F5931B",
"=. c #F69B1B",
"-. c #C5B21B",
";. c #C1B81B",
":. c #D8B11F",
">. c #E0A01B",
",. c #ECA21B",
"<. c #F7A31B",
"1. c #F8A61B",
"2. c #F7A81B",
"3. c #F8AB1B",
"4. c #E6B51B",
"5. c #EEB81B",
"6. c #ECB41B",
"7. c #F3B51B",
"8. c #F9B31B",
"9. c #FABD1B",
"0. c #C89921",
"q. c #CEAA20",
"w. c #C2AB21",
"e. c #C9BA20",
"r. c #D5C11B",
"t. c #DBC61D",
"y. c #E1C41B",
"u. c #E1CA1C",
"i. c #E8C91B",
"p. c #FBC31B",
"a. c #FCCC1B",
"s. c #EDDC1B",
"d. c #E9D11B",
"f. c #FCD31B",
"g. c #F5DC1B",
"h. c #FDDA1B",
"j. c #FEE31B",
"k. c #CCC221",
"l. c #D5C620",
"z. c #868247",
"x. c #8E8A43",
"c. c #8A854D",
"v. c #8E894F",
"b. c #9C9748",
"n. c #888552",
"m. c #888558",
"M. c #8C8958",
"N. c #8F8C61",
"B. c #88807D",
"V. c #818181",
/* pixels */
"              < < < < < < < < < < < < < 3 V.                ",
"              < < < < < < < < < < < < < 3 V.                ",
"            n.z.z.z.z.z.z.z.z.z.z.z.z.z.c.M.N.              ",
"        2 c.E U U U U U U U U U U U U U W E x.v.            ",
"      2 > T U P P P P P P P P P P P P P ^ I Y x.N.          ",
"    K H k ` _ -.-.-.-.-.-.-.-.-.-.-.-.-.} { ] ' b.N.        ",
"1 1 H l n ) q.y.y.y.y.y.y.y.y.y.y.u.u.u.t.l.k. .' x.v.      ",
": : f n w o.4.f.f.f.f.f.f.f.f.f.f.h.h.h.g.s.s.k.] Y x.N.    ",
"# # i c A O.6.a.f.f.f.f.f.h.h.f.f.f.f.f.g.g.s.l.| / ! n.3 3 ",
"o o r b #.&.7.a.a.a.a.f.h.h.h.h.h.f.f.f.f.g.g.u.e.{ Q z., , ",
". . 6 q %.=.8.p.p.a.a.f.h.j.h.h.h.f.a.a.f.f.h.d.r.;./ j * * ",
". . 6 q %.=.3.p.9.9.9.a.f.h.h.h.h.f.f.a.f.f.h.i.r.;./ j * * ",
". . 6 q %.=.3.9.9.8.8.9.a.h.h.h.h.f.f.f.f.f.f.i.r.;./ j * * ",
". . 6 q %.=.2.8.8.3.<.8.p.f.f.f.h.h.h.h.f.f.f.i.r.;./ j * * ",
". . 6 q %.*.<.8.3.<.=.3.9.a.f.f.f.h.h.h.h.f.f.i.r.;./ j * * ",
". . 6 q %.*.<.8.1.=.*.<.8.a.a.f.f.h.h.j.h.f.f.i.r.;./ j * * ",
". . 6 q %.*.<.3.<.*.%.=.8.p.a.a.f.f.h.j.h.f.f.i.r.;./ j * * ",
". . 6 q %.*.1.8.1.=.*.=.3.8.9.9.p.a.f.h.h.f.f.i.r.;./ j * * ",
". . 6 q %.=.3.8.3.<.=.=.=.<.3.3.8.9.a.h.f.f.f.i.r.;./ j * * ",
". . 6 q %.=.3.9.8.3.<.=.*.*.=.=.<.8.p.f.f.f.f.i.r.;./ j * * ",
". . 4 q $.*.<.8.8.3.3.<.=.=.=.<.<.8.p.a.a.a.a.i.r.;./ j * * ",
". . 4 0 $.%.=.3.3.8.8.3.1.=.<.<.3.8.9.a.a.a.a.i.r.;./ j * * ",
". . 4 0 D %.*.<.3.8.9.8.3.1.3.3.3.8.9.p.a.a.f.i.r.;./ j * * ",
"+ + e v C S +.*.=.<.3.3.<.=.<.<.<.3.3.8.7.7.5.:.w.[ Q z., , ",
"= = p s 9 V S %.*.=.<.=.=.=.=.=.=.=.<.<.,.,.>.0.( R x.m.    ",
"B.B.G u 5 9 C D $.%.*.*.*.*.*.*.*.*.*.*.@.X...~ z & ;       ",
"    J F u s v B V Z Z Z Z Z Z Z Z Z Z Z Z N M m x ;         ",
"      J G a y 7 8 8 8 8 8 8 8 8 8 8 8 8 t d g h L           ",
"        B.- $ X X X X X X X X X X X X X O @ % -             ",
"        B.- $ X X X X X X X X X X X X X O @ % -             "
};
